PathFileType	4	(X/Y/Z)	 s04c0202.trc
DataRate	CameraRate	NumFrames	NumMarkers	Units	OrigDataRate	OrigDataStartFrame	OrigNumFrames
200	200	4	50	mm	200	1251	2000
Frame#	Time	racr			lacr			c7			jug			rlel			rdr			llel			ldr			s2			lic			ric			lasi			rasi			rpsi			lpsi			rgt			lgt			rth1			rth2			rth3			rth4			rlfc			rmfc			rsh1			rsh2			rsh3			rsh4			rlmal			rmmal			rcal			rtoe			rmt5			lth1			lth2			lth4			lth3			llfc			lmfc			lsh1			lsh2			lsh3			lsh4			llmal			lmmal			lcal			ltoe			lmt5			SBIKE			LBIKE			RBIKE			
		X1	Y1	Z1	X2	Y2	Z2	X3	Y3	Z3	X4	Y4	Z4	X5	Y5	Z5	X6	Y6	Z6	X7	Y7	Z7	X8	Y8	Z8	X9	Y9	Z9	X10	Y10	Z10	X11	Y11	Z11	X12	Y12	Z12	X13	Y13	Z13	X14	Y14	Z14	X15	Y15	Z15	X16	Y16	Z16	X17	Y17	Z17	X18	Y18	Z18	X19	Y19	Z19	X20	Y20	Z20	X21	Y21	Z21	X22	Y22	Z22	X23	Y23	Z23	X24	Y24	Z24	X25	Y25	Z25	X26	Y26	Z26	X27	Y27	Z27	X28	Y28	Z28	X29	Y29	Z29	X30	Y30	Z30	X31	Y31	Z31	X32	Y32	Z32	X33	Y33	Z33	X34	Y34	Z34	X35	Y35	Z35	X36	Y36	Z36	X37	Y37	Z37	X38	Y38	Z38	X39	Y39	Z39	X40	Y40	Z40	X41	Y41	Z41	X42	Y42	Z42	X43	Y43	Z43	X44	Y44	Z44	X45	Y45	Z45	X46	Y46	Z46	X47	Y47	Z47	X48	Y48	Z48	X49	Y49	Z49	X50	Y50	Z50	
1251	6.2550	516.968057	1341.239909	-93.464562	497.816932	1354.354013	-369.261905	487.938779	1418.953961	-232.487643	433.532020	1270.207135	-234.173347	455.843891	1060.662660	61.058153	683.639457	941.969494	-79.502774	490.632245	1129.524342	-557.829534	674.653389	929.850118	-445.196422	-65.165840	1182.141002	-297.732152	105.276490	1198.553250	-436.472590	57.103368	1208.379348	-119.505447	142.824360	1150.847536	-386.638629	114.407917	1171.825926	-157.620181	-49.347393	1230.562583	-253.678716	-36.207111	1230.922946	-328.525616	25.253752	1159.275664	-103.007646	71.290176	1096.374536	-463.961433	163.138516	1074.682961	-86.574014	249.007683	1053.586115	-93.148176	312.467710	997.750290	-91.878699	263.473937	1083.778573	-111.022983	432.105421	911.392328	-113.422845	418.332875	887.536378	-225.394465	384.653502	797.879874	-88.295098	371.085373	708.021643	-100.685589	314.043163	643.373723	-105.707262	401.379102	698.527609	-123.656883	263.694313	497.587146	-112.105212	282.567685	505.292279	-196.885873	191.604225	463.650480	-150.177868	490.492256	446.227549	-146.078780	425.729373	420.708326	-88.533885	127.028193	1018.207442	-472.800788	197.844549	968.285799	-471.027276	223.360704	989.600609	-457.039412	235.893990	887.905249	-476.927339	304.680727	742.662091	-458.578203	327.507899	713.942767	-347.274892	253.201670	630.704116	-480.418876	220.608712	553.459521	-456.246624	152.706303	496.254614	-455.786510	243.303110	541.801101	-426.116919	62.874512	377.842588	-449.176668	57.965589	379.032330	-361.323099	-14.921397	399.334203	-408.634612	220.413889	204.209012	-402.811074	144.111769	220.082850	-466.368597	-176.598598	935.789026	-279.377086	-3.213250	85.891659	-484.581702	-14.962367	80.446920	-84.118397	
1252	6.2600	517.163745	1341.855714	-94.109228	497.471593	1353.950468	-369.846583	487.608765	1418.771293	-233.102854	433.756407	1269.792308	-234.135669	455.535630	1061.504636	60.563029	683.357660	942.401460	-79.349001	489.391936	1128.454146	-557.342859	674.452403	929.306466	-444.919370	-65.324127	1180.188105	-298.146163	105.530968	1197.090903	-435.667469	56.980603	1206.142065	-118.737290	143.305542	1149.685553	-385.828971	114.575836	1169.066932	-155.754533	-49.423633	1227.968361	-253.357876	-36.013753	1229.072485	-328.901653	24.773934	1154.205395	-102.664318	73.164978	1095.126858	-463.711958	162.395141	1065.795931	-86.036378	247.855953	1043.380452	-91.851440	310.333989	986.096648	-91.741178	263.185472	1073.581167	-108.908165	427.524859	896.677251	-112.275693	413.766906	873.169666	-224.596813	381.223595	781.447003	-88.165085	368.629047	691.599622	-101.520153	313.301371	626.151037	-106.886810	399.393506	683.048667	-124.580785	264.771799	481.317279	-113.449138	284.270655	490.266289	-198.607043	194.016613	445.782374	-151.362115	493.286692	439.169443	-145.662573	428.981723	411.381463	-88.350894	130.062721	1018.521974	-472.071258	201.876872	969.914360	-470.208901	226.929817	991.782358	-456.279562	241.513452	890.276882	-476.002366	311.641496	746.982530	-457.280587	333.785836	718.212176	-346.044613	258.979628	636.497261	-479.260509	224.434319	560.060970	-455.013675	155.150683	504.600372	-454.858503	246.619138	547.990689	-424.731482	62.021977	388.649496	-448.536651	57.482489	389.922067	-360.573908	-15.493352	412.051386	-407.691773	214.501968	210.157294	-402.508289	139.259626	228.877369	-466.337584	-176.630910	935.762838	-279.700700	-3.218192	85.806211	-484.630864	-14.966617	80.435434	-84.154685	
1253	6.2650	517.299398	1342.556096	-94.766868	496.650088	1353.368837	-370.264191	487.270357	1418.603046	-233.794292	433.420892	1269.594786	-233.882303	455.163385	1062.260786	60.001964	683.238475	942.821647	-79.163922	488.310167	1127.043410	-556.662654	674.506308	928.583713	-444.784053	-65.496845	1177.919742	-298.599130	105.901393	1195.464035	-434.814989	57.035712	1203.768804	-117.862775	143.644053	1148.479110	-384.729009	114.802876	1166.295198	-154.545445	-49.317953	1225.402405	-253.465976	-35.760499	1226.772319	-329.212353	24.434470	1148.836790	-102.250699	75.015152	1093.779006	-463.443897	161.722407	1056.990975	-85.221236	246.727997	1032.962717	-90.778407	308.390413	974.534944	-92.021528	263.217493	1063.784634	-106.322497	422.949840	882.276345	-111.251555	409.333180	858.757241	-224.260620	377.257098	765.849997	-88.242999	366.153895	675.758675	-102.351483	312.269458	609.396403	-107.902752	397.253073	668.023901	-125.386579	266.474960	465.588709	-114.278943	285.443720	475.319555	-199.140260	197.146347	428.341743	-152.866733	495.838826	431.149461	-145.431395	432.105099	401.518162	-88.406603	132.929857	1018.642222	-471.457404	205.595339	971.384080	-469.619262	230.249589	993.696869	-455.915598	246.688136	892.455859	-475.224339	318.334839	751.133349	-455.825250	339.771638	722.347109	-344.980708	264.446668	642.132881	-477.964151	228.105585	566.536078	-453.869047	157.586731	512.702122	-453.949885	249.807269	554.239694	-423.303716	61.252046	399.450676	-447.944221	57.156732	401.034217	-359.764323	-15.655833	424.400196	-407.042819	209.765978	217.552110	-402.616106	134.876618	238.124576	-466.368261	-176.653844	935.664697	-279.854504	-3.219791	85.706636	-484.663740	-14.969953	80.398375	-84.167057	
1254	6.2700	517.530648	1342.945044	-95.435467	496.382956	1352.729333	-370.986963	486.957374	1418.365980	-234.486768	433.648241	1269.139500	-234.029944	454.794455	1062.936462	59.486176	683.187932	943.204670	-79.035437	487.343639	1125.531618	-555.822860	674.518779	927.895437	-444.425963	-65.546284	1175.449528	-298.813670	106.202170	1193.803556	-434.060750	57.250135	1201.229651	-117.124286	144.107006	1147.206261	-383.939824	115.073090	1163.622704	-153.383366	-49.347926	1222.850025	-253.338685	-35.385800	1224.238152	-329.694851	24.373372	1143.193809	-101.648082	76.779828	1092.336408	-463.034588	161.089875	1048.443848	-84.235294	245.549246	1022.756193	-89.924411	306.098154	962.876544	-92.010797	262.920070	1053.624844	-104.284073	418.316103	868.391747	-110.709134	405.289024	845.350854	-222.856813	373.013280	752.862396	-88.052054	364.735505	662.603531	-102.620872	311.996689	594.899320	-108.620288	395.629992	655.713741	-125.281024	268.352751	450.407174	-114.962484	286.950028	460.928005	-199.964055	198.915630	413.376400	-152.615852	498.123827	422.395040	-145.295668	435.259834	391.290595	-88.727429	135.493833	1018.715735	-470.911211	208.976898	972.640626	-469.247073	233.404922	995.663925	-456.245773	251.322970	894.404243	-474.632011	324.552851	755.298657	-454.266939	345.568457	726.354957	-343.686380	269.675927	647.758193	-476.942004	231.632398	573.156503	-452.789697	159.652500	520.908763	-452.933779	252.813057	560.372942	-422.103668	60.775889	410.095431	-447.411664	57.117821	411.838970	-359.043975	-15.704540	436.707155	-406.522345	205.582293	225.476306	-402.627811	131.147694	247.680032	-466.342864	-176.681495	935.601284	-280.131701	-3.230131	85.595777	-484.699822	-14.972022	80.400624	-84.207361	
